<svg xmlns="http://www.w3.org/2000/svg" width="836" height="776" viewBox="0 0 836 776" font-family="monospace" font-size="11">
<rect width="836" height="776" fill="#15151c"/>
<text x="28" y="16" fill="#e8e8f0">arena seed 7140  |  centerpiece: -  |  4224x4224x880u  |  boxes 73  spawns 8</text>
<text x="28" y="24" fill="#9aa">PLAN (top-down)</text>
<rect x="28" y="28" width="560" height="560" fill="#1d1d27" stroke="#33333f"/>
<line x1="-31.4" y1="28.0" x2="-31.4" y2="588.0" stroke="#262630"/>
<line x1="36.5" y1="28.0" x2="36.5" y2="588.0" stroke="#262630"/>
<line x1="104.4" y1="28.0" x2="104.4" y2="588.0" stroke="#262630"/>
<line x1="172.2" y1="28.0" x2="172.2" y2="588.0" stroke="#262630"/>
<line x1="240.1" y1="28.0" x2="240.1" y2="588.0" stroke="#262630"/>
<line x1="308.0" y1="28.0" x2="308.0" y2="588.0" stroke="#262630"/>
<line x1="375.9" y1="28.0" x2="375.9" y2="588.0" stroke="#262630"/>
<line x1="443.8" y1="28.0" x2="443.8" y2="588.0" stroke="#262630"/>
<line x1="511.6" y1="28.0" x2="511.6" y2="588.0" stroke="#262630"/>
<line x1="579.5" y1="28.0" x2="579.5" y2="588.0" stroke="#262630"/>
<line x1="28.0" y1="647.4" x2="588.0" y2="647.4" stroke="#262630"/>
<line x1="28.0" y1="579.5" x2="588.0" y2="579.5" stroke="#262630"/>
<line x1="28.0" y1="511.6" x2="588.0" y2="511.6" stroke="#262630"/>
<line x1="28.0" y1="443.8" x2="588.0" y2="443.8" stroke="#262630"/>
<line x1="28.0" y1="375.9" x2="588.0" y2="375.9" stroke="#262630"/>
<line x1="28.0" y1="308.0" x2="588.0" y2="308.0" stroke="#262630"/>
<line x1="28.0" y1="240.1" x2="588.0" y2="240.1" stroke="#262630"/>
<line x1="28.0" y1="172.2" x2="588.0" y2="172.2" stroke="#262630"/>
<line x1="28.0" y1="104.4" x2="588.0" y2="104.4" stroke="#262630"/>
<line x1="28.0" y1="36.5" x2="588.0" y2="36.5" stroke="#262630"/>
<rect x="28.0" y="28.0" width="560.0" height="560.0" fill="#c8783c" fill-opacity="0.3" stroke="#00000040"/>
<rect x="28.0" y="28.0" width="8.5" height="560.0" fill="#c8783c" fill-opacity="0.3" stroke="#00000040"/>
<rect x="579.5" y="28.0" width="8.5" height="560.0" fill="#c8783c" fill-opacity="0.3" stroke="#00000040"/>
<rect x="36.5" y="579.5" width="543.0" height="8.5" fill="#c8783c" fill-opacity="0.3" stroke="#00000040"/>
<rect x="36.5" y="28.0" width="543.0" height="8.5" fill="#c8783c" fill-opacity="0.3" stroke="#00000040"/>
<rect x="103.3" y="103.3" width="409.4" height="409.4" fill="#c8783c" fill-opacity="0.3" stroke="#00000040"/>
<rect x="496.1" y="210.6" width="66.4" height="97.4" fill="#3f63bd" fill-opacity="0.85" stroke="#00000040"/>
<rect x="452.0" y="128.0" width="91.2" height="102.1" fill="#3f63bd" fill-opacity="0.85" stroke="#00000040"/>
<rect x="385.9" y="72.8" width="102.1" height="91.2" fill="#3f63bd" fill-opacity="0.85" stroke="#00000040"/>
<rect x="308.0" y="53.5" width="97.4" height="66.4" fill="#3f63bd" fill-opacity="0.85" stroke="#00000040"/>
<rect x="210.6" y="53.5" width="97.4" height="66.4" fill="#3f63bd" fill-opacity="0.85" stroke="#00000040"/>
<rect x="128.0" y="72.8" width="102.1" height="91.2" fill="#3f63bd" fill-opacity="0.85" stroke="#00000040"/>
<rect x="72.8" y="128.0" width="91.2" height="102.1" fill="#3f63bd" fill-opacity="0.85" stroke="#00000040"/>
<rect x="53.5" y="210.6" width="66.4" height="97.4" fill="#3f63bd" fill-opacity="0.85" stroke="#00000040"/>
<rect x="53.5" y="308.0" width="66.4" height="97.4" fill="#3f63bd" fill-opacity="0.85" stroke="#00000040"/>
<rect x="72.8" y="385.9" width="91.2" height="102.1" fill="#3f63bd" fill-opacity="0.85" stroke="#00000040"/>
<rect x="128.0" y="452.0" width="102.1" height="91.2" fill="#3f63bd" fill-opacity="0.85" stroke="#00000040"/>
<rect x="210.6" y="496.1" width="97.4" height="66.4" fill="#3f63bd" fill-opacity="0.85" stroke="#00000040"/>
<rect x="308.0" y="496.1" width="97.4" height="66.4" fill="#3f63bd" fill-opacity="0.85" stroke="#00000040"/>
<rect x="385.9" y="452.0" width="102.1" height="91.2" fill="#3f63bd" fill-opacity="0.85" stroke="#00000040"/>
<rect x="452.0" y="385.9" width="91.2" height="102.1" fill="#3f63bd" fill-opacity="0.85" stroke="#00000040"/>
<rect x="496.1" y="308.0" width="66.4" height="97.4" fill="#3f63bd" fill-opacity="0.85" stroke="#00000040"/>
<rect x="543.2" y="207.3" width="27.9" height="100.7" fill="#8f8f96" fill-opacity="0.85" stroke="#00000040"/>
<rect x="488.0" y="122.0" width="63.0" height="88.6" fill="#8f8f96" fill-opacity="0.85" stroke="#00000040"/>
<rect x="405.4" y="65.0" width="88.6" height="63.0" fill="#8f8f96" fill-opacity="0.85" stroke="#00000040"/>
<rect x="308.0" y="45.0" width="100.7" height="27.9" fill="#8f8f96" fill-opacity="0.85" stroke="#00000040"/>
<rect x="207.3" y="45.0" width="100.7" height="27.9" fill="#8f8f96" fill-opacity="0.85" stroke="#00000040"/>
<rect x="122.0" y="65.0" width="88.6" height="63.0" fill="#8f8f96" fill-opacity="0.85" stroke="#00000040"/>
<rect x="65.0" y="122.0" width="63.0" height="88.6" fill="#8f8f96" fill-opacity="0.85" stroke="#00000040"/>
<rect x="45.0" y="207.3" width="27.9" height="100.7" fill="#8f8f96" fill-opacity="0.85" stroke="#00000040"/>
<rect x="45.0" y="308.0" width="27.9" height="100.7" fill="#8f8f96" fill-opacity="0.85" stroke="#00000040"/>
<rect x="65.0" y="405.4" width="63.0" height="88.6" fill="#8f8f96" fill-opacity="0.85" stroke="#00000040"/>
<rect x="122.0" y="488.0" width="88.6" height="63.0" fill="#8f8f96" fill-opacity="0.85" stroke="#00000040"/>
<rect x="207.3" y="543.2" width="100.7" height="27.9" fill="#8f8f96" fill-opacity="0.85" stroke="#00000040"/>
<rect x="308.0" y="543.2" width="100.7" height="27.9" fill="#8f8f96" fill-opacity="0.85" stroke="#00000040"/>
<rect x="405.4" y="488.0" width="88.6" height="63.0" fill="#8f8f96" fill-opacity="0.85" stroke="#00000040"/>
<rect x="488.0" y="405.4" width="63.0" height="88.6" fill="#8f8f96" fill-opacity="0.85" stroke="#00000040"/>
<rect x="543.2" y="308.0" width="27.9" height="100.7" fill="#8f8f96" fill-opacity="0.85" stroke="#00000040"/>
<rect x="243.1" y="63.9" width="38.3" height="39.5" fill="#f2e85a" fill-opacity="0.85" stroke="#00000040"/>
<rect x="63.9" y="334.6" width="39.5" height="38.3" fill="#f2e85a" fill-opacity="0.85" stroke="#00000040"/>
<rect x="334.6" y="512.6" width="38.3" height="39.5" fill="#f2e85a" fill-opacity="0.85" stroke="#00000040"/>
<rect x="512.6" y="243.1" width="39.5" height="38.3" fill="#f2e85a" fill-opacity="0.85" stroke="#00000040"/>
<rect x="341.9" y="295.3" width="33.9" height="25.5" fill="#c8783c" fill-opacity="0.3" stroke="#00000040"/>
<rect x="240.1" y="295.3" width="33.9" height="25.5" fill="#c8783c" fill-opacity="0.3" stroke="#00000040"/>
<rect x="295.3" y="240.1" width="25.5" height="17.0" fill="#f2e85a" fill-opacity="0.85" stroke="#00000040"/>
<rect x="295.3" y="358.9" width="25.5" height="17.0" fill="#f2e85a" fill-opacity="0.85" stroke="#00000040"/>
<rect x="269.8" y="269.8" width="76.4" height="14.8" fill="#c8783c" fill-opacity="0.3" stroke="#00000040"/>
<rect x="269.8" y="331.3" width="76.4" height="14.8" fill="#c8783c" fill-opacity="0.3" stroke="#00000040"/>
<rect x="331.3" y="284.7" width="14.8" height="46.7" fill="#c8783c" fill-opacity="0.3" stroke="#00000040"/>
<rect x="269.8" y="284.7" width="14.8" height="46.7" fill="#c8783c" fill-opacity="0.3" stroke="#00000040"/>
<rect x="289.2" y="188.0" width="17.0" height="17.0" fill="#8f8f96" fill-opacity="0.85" stroke="#00000040"/>
<rect x="210.2" y="366.3" width="12.7" height="12.7" fill="#8f8f96" fill-opacity="0.85" stroke="#00000040"/>
<rect x="195.6" y="250.6" width="21.2" height="21.2" fill="#8f8f96" fill-opacity="0.85" stroke="#00000040"/>
<rect x="309.8" y="411.0" width="17.0" height="17.0" fill="#8f8f96" fill-opacity="0.85" stroke="#00000040"/>
<rect x="403.4" y="348.5" width="12.7" height="12.7" fill="#8f8f96" fill-opacity="0.85" stroke="#00000040"/>
<rect x="388.8" y="232.7" width="21.2" height="21.2" fill="#8f8f96" fill-opacity="0.85" stroke="#00000040"/>
<rect x="448.3" y="301.6" width="12.7" height="12.7" fill="#f2f06e" fill-opacity="0.85" stroke="#00000040"/>
<rect x="301.6" y="155.0" width="12.7" height="12.7" fill="#f2f06e" fill-opacity="0.85" stroke="#00000040"/>
<rect x="155.0" y="301.6" width="12.7" height="12.7" fill="#f2f06e" fill-opacity="0.85" stroke="#00000040"/>
<rect x="301.6" y="448.3" width="12.7" height="12.7" fill="#f2f06e" fill-opacity="0.85" stroke="#00000040"/>
<rect x="284.7" y="284.7" width="46.7" height="46.7" fill="#ff5f5f" fill-opacity="0.85" stroke="#00000040"/>
<rect x="299.5" y="299.5" width="17.0" height="17.0" fill="#e8b070" fill-opacity="0.85" stroke="#00000040"/>
<rect x="537.1" y="293.2" width="23.3" height="29.7" fill="#e8b070" fill-opacity="0.85" stroke="#00000040"/>
<rect x="55.6" y="293.2" width="23.3" height="29.7" fill="#e8b070" fill-opacity="0.85" stroke="#00000040"/>
<rect x="366.1" y="372.7" width="25.5" height="25.5" fill="#e8b070" fill-opacity="0.85" stroke="#00000040"/>
<rect x="370.5" y="222.3" width="29.7" height="29.7" fill="#e8b070" fill-opacity="0.85" stroke="#00000040"/>
<rect x="224.4" y="217.9" width="25.5" height="25.5" fill="#e8b070" fill-opacity="0.85" stroke="#00000040"/>
<rect x="215.8" y="364.0" width="29.7" height="29.7" fill="#e8b070" fill-opacity="0.85" stroke="#00000040"/>
<rect x="374.1" y="300.8" width="21.2" height="21.2" fill="#e8b070" fill-opacity="0.85" stroke="#00000040"/>
<rect x="298.7" y="218.5" width="25.5" height="25.5" fill="#e8b070" fill-opacity="0.85" stroke="#00000040"/>
<rect x="216.4" y="289.8" width="29.7" height="29.7" fill="#e8b070" fill-opacity="0.85" stroke="#00000040"/>
<rect x="289.8" y="369.9" width="29.7" height="29.7" fill="#e8b070" fill-opacity="0.85" stroke="#00000040"/>
<rect x="28.0" y="28.0" width="560.0" height="560.0" fill="#c8783c" fill-opacity="0.3" stroke="#00000040"/>
<circle cx="530.2" cy="263.8" r="6" fill="#7fb0ff" stroke="#000" stroke-width="0.5"/>
<text x="530.2" y="266.8" fill="#111" text-anchor="middle" font-size="8">A</text>
<circle cx="433.9" cy="119.6" r="6" fill="#7fb0ff" stroke="#000" stroke-width="0.5"/>
<text x="433.9" y="122.6" fill="#111" text-anchor="middle" font-size="8">A</text>
<circle cx="263.8" cy="85.8" r="6" fill="#7fb0ff" stroke="#000" stroke-width="0.5"/>
<text x="263.8" y="88.8" fill="#111" text-anchor="middle" font-size="8">A</text>
<circle cx="119.6" cy="182.1" r="6" fill="#7fb0ff" stroke="#000" stroke-width="0.5"/>
<text x="119.6" y="185.1" fill="#111" text-anchor="middle" font-size="8">A</text>
<circle cx="85.8" cy="352.2" r="6" fill="#7fb0ff" stroke="#000" stroke-width="0.5"/>
<text x="85.8" y="355.2" fill="#111" text-anchor="middle" font-size="8">A</text>
<circle cx="182.1" cy="496.4" r="6" fill="#7fb0ff" stroke="#000" stroke-width="0.5"/>
<text x="182.1" y="499.4" fill="#111" text-anchor="middle" font-size="8">A</text>
<circle cx="352.2" cy="530.2" r="6" fill="#7fb0ff" stroke="#000" stroke-width="0.5"/>
<text x="352.2" y="533.2" fill="#111" text-anchor="middle" font-size="8">A</text>
<circle cx="496.4" cy="433.9" r="6" fill="#7fb0ff" stroke="#000" stroke-width="0.5"/>
<text x="496.4" y="436.9" fill="#111" text-anchor="middle" font-size="8">A</text>
<circle cx="308.0" cy="308.0" r="6" fill="#cf57f0" stroke="#000" stroke-width="0.5"/>
<text x="308.0" y="311.0" fill="#111" text-anchor="middle" font-size="8">Q</text>
<circle cx="338.8" cy="277.2" r="6" fill="#ff9b9b" stroke="#000" stroke-width="0.5"/>
<text x="338.8" y="280.2" fill="#111" text-anchor="middle" font-size="8">h</text>
<circle cx="277.2" cy="338.8" r="6" fill="#ff9b9b" stroke="#000" stroke-width="0.5"/>
<text x="277.2" y="341.8" fill="#111" text-anchor="middle" font-size="8">h</text>
<circle cx="378.8" cy="385.4" r="6" fill="#7fb0ff" stroke="#000" stroke-width="0.5"/>
<text x="378.8" y="388.4" fill="#111" text-anchor="middle" font-size="8">A</text>
<circle cx="385.4" cy="237.2" r="6" fill="#7fb0ff" stroke="#000" stroke-width="0.5"/>
<text x="385.4" y="240.2" fill="#111" text-anchor="middle" font-size="8">A</text>
<circle cx="237.2" cy="230.6" r="6" fill="#7fb0ff" stroke="#000" stroke-width="0.5"/>
<text x="237.2" y="233.6" fill="#111" text-anchor="middle" font-size="8">A</text>
<circle cx="230.6" cy="378.8" r="6" fill="#7fb0ff" stroke="#000" stroke-width="0.5"/>
<text x="230.6" y="381.8" fill="#111" text-anchor="middle" font-size="8">A</text>
<circle cx="548.8" cy="308.0" r="6" fill="#7fb0ff" stroke="#000" stroke-width="0.5"/>
<text x="548.8" y="311.0" fill="#111" text-anchor="middle" font-size="8">A</text>
<circle cx="67.2" cy="308.0" r="6" fill="#ff7777" stroke="#000" stroke-width="0.5"/>
<text x="67.2" y="311.0" fill="#111" text-anchor="middle" font-size="8">M</text>
<circle cx="470.9" cy="308.0" r="6" fill="#ff9b9b" stroke="#000" stroke-width="0.5"/>
<text x="470.9" y="311.0" fill="#111" text-anchor="middle" font-size="8">h</text>
<circle cx="145.1" cy="308.0" r="6" fill="#ff9b9b" stroke="#000" stroke-width="0.5"/>
<text x="145.1" y="311.0" fill="#111" text-anchor="middle" font-size="8">h</text>
<circle cx="308.0" cy="145.1" r="6" fill="#7fb0ff" stroke="#000" stroke-width="0.5"/>
<text x="308.0" y="148.1" fill="#111" text-anchor="middle" font-size="8">A</text>
<circle cx="308.0" cy="470.9" r="6" fill="#7fb0ff" stroke="#000" stroke-width="0.5"/>
<text x="308.0" y="473.9" fill="#111" text-anchor="middle" font-size="8">A</text>
<circle cx="372.8" cy="243.2" r="6" fill="#ff9b9b" stroke="#000" stroke-width="0.5"/>
<text x="372.8" y="246.2" fill="#111" text-anchor="middle" font-size="8">h</text>
<circle cx="243.2" cy="372.8" r="6" fill="#ff9b9b" stroke="#000" stroke-width="0.5"/>
<text x="243.2" y="375.8" fill="#111" text-anchor="middle" font-size="8">h</text>
<circle cx="192.8" cy="192.8" r="6" fill="#7fb0ff" stroke="#000" stroke-width="0.5"/>
<text x="192.8" y="195.8" fill="#111" text-anchor="middle" font-size="8">A</text>
<circle cx="423.2" cy="423.2" r="6" fill="#7fb0ff" stroke="#000" stroke-width="0.5"/>
<text x="423.2" y="426.2" fill="#111" text-anchor="middle" font-size="8">A</text>
<circle cx="351.2" cy="264.8" r="6" fill="#ff9b9b" stroke="#000" stroke-width="0.5"/>
<text x="351.2" y="267.8" fill="#111" text-anchor="middle" font-size="8">h</text>
<circle cx="434.3" cy="308.0" r="6" fill="#7fb0ff" stroke="#000" stroke-width="0.5"/>
<text x="434.3" y="311.0" fill="#111" text-anchor="middle" font-size="8">A</text>
<circle cx="264.8" cy="264.8" r="6" fill="#ff9b9b" stroke="#000" stroke-width="0.5"/>
<text x="264.8" y="267.8" fill="#111" text-anchor="middle" font-size="8">h</text>
<circle cx="308.0" cy="181.7" r="6" fill="#7fb0ff" stroke="#000" stroke-width="0.5"/>
<text x="308.0" y="184.7" fill="#111" text-anchor="middle" font-size="8">A</text>
<circle cx="264.8" cy="351.2" r="6" fill="#ff9b9b" stroke="#000" stroke-width="0.5"/>
<text x="264.8" y="354.2" fill="#111" text-anchor="middle" font-size="8">h</text>
<circle cx="181.7" cy="308.0" r="6" fill="#7fb0ff" stroke="#000" stroke-width="0.5"/>
<text x="181.7" y="311.0" fill="#111" text-anchor="middle" font-size="8">A</text>
<circle cx="351.2" cy="351.2" r="6" fill="#ff9b9b" stroke="#000" stroke-width="0.5"/>
<text x="351.2" y="354.2" fill="#111" text-anchor="middle" font-size="8">h</text>
<circle cx="308.0" cy="434.3" r="6" fill="#7fb0ff" stroke="#000" stroke-width="0.5"/>
<text x="308.0" y="437.3" fill="#111" text-anchor="middle" font-size="8">A</text>
<circle cx="420.9" cy="261.2" r="6" fill="#8fff8f" stroke="#000" stroke-width="0.5"/>
<text x="420.9" y="264.2" fill="#111" text-anchor="middle" font-size="8">S</text>
<circle cx="354.8" cy="195.1" r="6" fill="#8fff8f" stroke="#000" stroke-width="0.5"/>
<text x="354.8" y="198.1" fill="#111" text-anchor="middle" font-size="8">S</text>
<circle cx="261.2" cy="195.1" r="6" fill="#8fff8f" stroke="#000" stroke-width="0.5"/>
<text x="261.2" y="198.1" fill="#111" text-anchor="middle" font-size="8">S</text>
<circle cx="190.0" cy="276.4" r="6" fill="#8fff8f" stroke="#000" stroke-width="0.5"/>
<text x="190.0" y="279.4" fill="#111" text-anchor="middle" font-size="8">S</text>
<circle cx="195.1" cy="354.8" r="6" fill="#8fff8f" stroke="#000" stroke-width="0.5"/>
<text x="195.1" y="357.8" fill="#111" text-anchor="middle" font-size="8">S</text>
<circle cx="261.2" cy="420.9" r="6" fill="#8fff8f" stroke="#000" stroke-width="0.5"/>
<text x="261.2" y="423.9" fill="#111" text-anchor="middle" font-size="8">S</text>
<circle cx="354.8" cy="420.9" r="6" fill="#8fff8f" stroke="#000" stroke-width="0.5"/>
<text x="354.8" y="423.9" fill="#111" text-anchor="middle" font-size="8">S</text>
<circle cx="422.8" cy="349.8" r="6" fill="#8fff8f" stroke="#000" stroke-width="0.5"/>
<text x="422.8" y="352.8" fill="#111" text-anchor="middle" font-size="8">S</text>
<text x="28" y="622" fill="#9aa">ELEVATION (side, X x Z)</text>
<rect x="28" y="628" width="560" height="120" fill="#1d1d27" stroke="#33333f"/>
<rect x="28.0" y="736.2" width="560.0" height="8.5" fill="#c8783c" fill-opacity="0.25" stroke="#00000030"/>
<rect x="28.0" y="636.5" width="8.5" height="99.7" fill="#c8783c" fill-opacity="0.25" stroke="#00000030"/>
<rect x="579.5" y="636.5" width="8.5" height="99.7" fill="#c8783c" fill-opacity="0.25" stroke="#00000030"/>
<rect x="36.5" y="636.5" width="543.0" height="99.7" fill="#c8783c" fill-opacity="0.25" stroke="#00000030"/>
<rect x="36.5" y="636.5" width="543.0" height="99.7" fill="#c8783c" fill-opacity="0.25" stroke="#00000030"/>
<rect x="103.3" y="721.3" width="409.4" height="6.4" fill="#c8783c" fill-opacity="0.25" stroke="#00000030"/>
<rect x="496.1" y="687.4" width="66.4" height="40.3" fill="#3f63bd" fill-opacity="0.7" stroke="#00000030"/>
<rect x="452.0" y="687.4" width="91.2" height="40.3" fill="#3f63bd" fill-opacity="0.7" stroke="#00000030"/>
<rect x="385.9" y="687.4" width="102.1" height="40.3" fill="#3f63bd" fill-opacity="0.7" stroke="#00000030"/>
<rect x="308.0" y="687.4" width="97.4" height="40.3" fill="#3f63bd" fill-opacity="0.7" stroke="#00000030"/>
<rect x="210.6" y="687.4" width="97.4" height="40.3" fill="#3f63bd" fill-opacity="0.7" stroke="#00000030"/>
<rect x="128.0" y="687.4" width="102.1" height="40.3" fill="#3f63bd" fill-opacity="0.7" stroke="#00000030"/>
<rect x="72.8" y="687.4" width="91.2" height="40.3" fill="#3f63bd" fill-opacity="0.7" stroke="#00000030"/>
<rect x="53.5" y="687.4" width="66.4" height="40.3" fill="#3f63bd" fill-opacity="0.7" stroke="#00000030"/>
<rect x="53.5" y="687.4" width="66.4" height="40.3" fill="#3f63bd" fill-opacity="0.7" stroke="#00000030"/>
<rect x="72.8" y="687.4" width="91.2" height="40.3" fill="#3f63bd" fill-opacity="0.7" stroke="#00000030"/>
<rect x="128.0" y="687.4" width="102.1" height="40.3" fill="#3f63bd" fill-opacity="0.7" stroke="#00000030"/>
<rect x="210.6" y="687.4" width="97.4" height="40.3" fill="#3f63bd" fill-opacity="0.7" stroke="#00000030"/>
<rect x="308.0" y="687.4" width="97.4" height="40.3" fill="#3f63bd" fill-opacity="0.7" stroke="#00000030"/>
<rect x="385.9" y="687.4" width="102.1" height="40.3" fill="#3f63bd" fill-opacity="0.7" stroke="#00000030"/>
<rect x="452.0" y="687.4" width="91.2" height="40.3" fill="#3f63bd" fill-opacity="0.7" stroke="#00000030"/>
<rect x="496.1" y="687.4" width="66.4" height="40.3" fill="#3f63bd" fill-opacity="0.7" stroke="#00000030"/>
<rect x="543.2" y="636.5" width="27.9" height="91.2" fill="#8f8f96" fill-opacity="0.7" stroke="#00000030"/>
<rect x="488.0" y="636.5" width="63.0" height="91.2" fill="#8f8f96" fill-opacity="0.7" stroke="#00000030"/>
<rect x="405.4" y="636.5" width="88.6" height="91.2" fill="#8f8f96" fill-opacity="0.7" stroke="#00000030"/>
<rect x="308.0" y="636.5" width="100.7" height="91.2" fill="#8f8f96" fill-opacity="0.7" stroke="#00000030"/>
<rect x="207.3" y="636.5" width="100.7" height="91.2" fill="#8f8f96" fill-opacity="0.7" stroke="#00000030"/>
<rect x="122.0" y="636.5" width="88.6" height="91.2" fill="#8f8f96" fill-opacity="0.7" stroke="#00000030"/>
<rect x="65.0" y="636.5" width="63.0" height="91.2" fill="#8f8f96" fill-opacity="0.7" stroke="#00000030"/>
<rect x="45.0" y="636.5" width="27.9" height="91.2" fill="#8f8f96" fill-opacity="0.7" stroke="#00000030"/>
<rect x="45.0" y="636.5" width="27.9" height="91.2" fill="#8f8f96" fill-opacity="0.7" stroke="#00000030"/>
<rect x="65.0" y="636.5" width="63.0" height="91.2" fill="#8f8f96" fill-opacity="0.7" stroke="#00000030"/>
<rect x="122.0" y="636.5" width="88.6" height="91.2" fill="#8f8f96" fill-opacity="0.7" stroke="#00000030"/>
<rect x="207.3" y="636.5" width="100.7" height="91.2" fill="#8f8f96" fill-opacity="0.7" stroke="#00000030"/>
<rect x="308.0" y="636.5" width="100.7" height="91.2" fill="#8f8f96" fill-opacity="0.7" stroke="#00000030"/>
<rect x="405.4" y="636.5" width="88.6" height="91.2" fill="#8f8f96" fill-opacity="0.7" stroke="#00000030"/>
<rect x="488.0" y="636.5" width="63.0" height="91.2" fill="#8f8f96" fill-opacity="0.7" stroke="#00000030"/>
<rect x="543.2" y="636.5" width="27.9" height="91.2" fill="#8f8f96" fill-opacity="0.7" stroke="#00000030"/>
<rect x="243.1" y="692.0" width="38.3" height="35.7" fill="#f2e85a" fill-opacity="0.7" stroke="#00000030"/>
<rect x="63.9" y="692.0" width="39.5" height="35.7" fill="#f2e85a" fill-opacity="0.7" stroke="#00000030"/>
<rect x="334.6" y="692.0" width="38.3" height="35.7" fill="#f2e85a" fill-opacity="0.7" stroke="#00000030"/>
<rect x="512.6" y="692.0" width="39.5" height="35.7" fill="#f2e85a" fill-opacity="0.7" stroke="#00000030"/>
<rect x="341.9" y="713.9" width="33.9" height="9.5" fill="#c8783c" fill-opacity="0.25" stroke="#00000030"/>
<rect x="240.1" y="713.9" width="33.9" height="9.5" fill="#c8783c" fill-opacity="0.25" stroke="#00000030"/>
<rect x="295.3" y="708.6" width="25.5" height="14.8" fill="#f2e85a" fill-opacity="0.7" stroke="#00000030"/>
<rect x="295.3" y="708.6" width="25.5" height="14.8" fill="#f2e85a" fill-opacity="0.7" stroke="#00000030"/>
<rect x="269.8" y="711.5" width="76.4" height="9.8" fill="#c8783c" fill-opacity="0.25" stroke="#00000030"/>
<rect x="269.8" y="711.5" width="76.4" height="9.8" fill="#c8783c" fill-opacity="0.25" stroke="#00000030"/>
<rect x="331.3" y="711.5" width="14.8" height="9.8" fill="#c8783c" fill-opacity="0.25" stroke="#00000030"/>
<rect x="269.8" y="711.5" width="14.8" height="9.8" fill="#c8783c" fill-opacity="0.25" stroke="#00000030"/>
<rect x="289.2" y="687.4" width="17.0" height="33.9" fill="#8f8f96" fill-opacity="0.7" stroke="#00000030"/>
<rect x="210.2" y="683.2" width="12.7" height="38.2" fill="#8f8f96" fill-opacity="0.7" stroke="#00000030"/>
<rect x="195.6" y="678.9" width="21.2" height="42.4" fill="#8f8f96" fill-opacity="0.7" stroke="#00000030"/>
<rect x="309.8" y="674.7" width="17.0" height="46.7" fill="#8f8f96" fill-opacity="0.7" stroke="#00000030"/>
<rect x="403.4" y="670.4" width="12.7" height="50.9" fill="#8f8f96" fill-opacity="0.7" stroke="#00000030"/>
<rect x="388.8" y="670.4" width="21.2" height="50.9" fill="#8f8f96" fill-opacity="0.7" stroke="#00000030"/>
<rect x="448.3" y="720.0" width="12.7" height="1.3" fill="#f2f06e" fill-opacity="0.7" stroke="#00000030"/>
<rect x="301.6" y="720.0" width="12.7" height="1.3" fill="#f2f06e" fill-opacity="0.7" stroke="#00000030"/>
<rect x="155.0" y="720.0" width="12.7" height="1.3" fill="#f2f06e" fill-opacity="0.7" stroke="#00000030"/>
<rect x="301.6" y="720.0" width="12.7" height="1.3" fill="#f2f06e" fill-opacity="0.7" stroke="#00000030"/>
<rect x="284.7" y="720.3" width="46.7" height="1.1" fill="#ff5f5f" fill-opacity="0.7" stroke="#00000030"/>
<rect x="299.5" y="717.1" width="17.0" height="3.2" fill="#e8b070" fill-opacity="0.7" stroke="#00000030"/>
<rect x="537.1" y="687.4" width="23.3" height="17.0" fill="#e8b070" fill-opacity="0.7" stroke="#00000030"/>
<rect x="55.6" y="687.4" width="23.3" height="17.0" fill="#e8b070" fill-opacity="0.7" stroke="#00000030"/>
<rect x="366.1" y="699.3" width="25.5" height="2.1" fill="#e8b070" fill-opacity="0.7" stroke="#00000030"/>
<rect x="370.5" y="694.0" width="29.7" height="2.1" fill="#e8b070" fill-opacity="0.7" stroke="#00000030"/>
<rect x="224.4" y="688.7" width="25.5" height="2.1" fill="#e8b070" fill-opacity="0.7" stroke="#00000030"/>
<rect x="215.8" y="683.4" width="29.7" height="2.1" fill="#e8b070" fill-opacity="0.7" stroke="#00000030"/>
<rect x="374.1" y="682.9" width="21.2" height="2.1" fill="#e8b070" fill-opacity="0.7" stroke="#00000030"/>
<rect x="298.7" y="677.6" width="25.5" height="2.1" fill="#e8b070" fill-opacity="0.7" stroke="#00000030"/>
<rect x="216.4" y="672.3" width="29.7" height="2.1" fill="#e8b070" fill-opacity="0.7" stroke="#00000030"/>
<rect x="289.8" y="667.0" width="29.7" height="2.1" fill="#e8b070" fill-opacity="0.7" stroke="#00000030"/>
<rect x="28.0" y="628.0" width="560.0" height="8.5" fill="#c8783c" fill-opacity="0.25" stroke="#00000030"/>
<circle cx="530.2" cy="702.9" r="3.5" fill="#7fb0ff"/>
<circle cx="433.9" cy="702.9" r="3.5" fill="#7fb0ff"/>
<circle cx="263.8" cy="702.9" r="3.5" fill="#7fb0ff"/>
<circle cx="119.6" cy="702.9" r="3.5" fill="#7fb0ff"/>
<circle cx="85.8" cy="702.9" r="3.5" fill="#7fb0ff"/>
<circle cx="182.1" cy="702.9" r="3.5" fill="#7fb0ff"/>
<circle cx="352.2" cy="702.9" r="3.5" fill="#7fb0ff"/>
<circle cx="496.4" cy="702.9" r="3.5" fill="#7fb0ff"/>
<circle cx="308.0" cy="713.9" r="3.5" fill="#cf57f0"/>
<circle cx="338.8" cy="708.3" r="3.5" fill="#ff9b9b"/>
<circle cx="277.2" cy="708.3" r="3.5" fill="#ff9b9b"/>
<circle cx="378.8" cy="696.1" r="3.5" fill="#7fb0ff"/>
<circle cx="385.4" cy="690.8" r="3.5" fill="#7fb0ff"/>
<circle cx="237.2" cy="685.5" r="3.5" fill="#7fb0ff"/>
<circle cx="230.6" cy="680.2" r="3.5" fill="#7fb0ff"/>
<circle cx="548.8" cy="684.2" r="3.5" fill="#7fb0ff"/>
<circle cx="67.2" cy="684.2" r="3.5" fill="#ff7777"/>
<circle cx="470.9" cy="718.2" r="3.5" fill="#ff9b9b"/>
<circle cx="145.1" cy="718.2" r="3.5" fill="#ff9b9b"/>
<circle cx="308.0" cy="718.2" r="3.5" fill="#7fb0ff"/>
<circle cx="308.0" cy="718.2" r="3.5" fill="#7fb0ff"/>
<circle cx="372.8" cy="718.2" r="3.5" fill="#ff9b9b"/>
<circle cx="243.2" cy="718.2" r="3.5" fill="#ff9b9b"/>
<circle cx="192.8" cy="718.2" r="3.5" fill="#7fb0ff"/>
<circle cx="423.2" cy="718.2" r="3.5" fill="#7fb0ff"/>
<circle cx="351.2" cy="718.2" r="3.5" fill="#ff9b9b"/>
<circle cx="434.3" cy="718.2" r="3.5" fill="#7fb0ff"/>
<circle cx="264.8" cy="718.2" r="3.5" fill="#ff9b9b"/>
<circle cx="308.0" cy="718.2" r="3.5" fill="#7fb0ff"/>
<circle cx="264.8" cy="718.2" r="3.5" fill="#ff9b9b"/>
<circle cx="181.7" cy="718.2" r="3.5" fill="#7fb0ff"/>
<circle cx="351.2" cy="718.2" r="3.5" fill="#ff9b9b"/>
<circle cx="308.0" cy="718.2" r="3.5" fill="#7fb0ff"/>
<circle cx="420.9" cy="716.0" r="3.5" fill="#8fff8f"/>
<circle cx="354.8" cy="716.0" r="3.5" fill="#8fff8f"/>
<circle cx="261.2" cy="716.0" r="3.5" fill="#8fff8f"/>
<circle cx="190.0" cy="716.0" r="3.5" fill="#8fff8f"/>
<circle cx="195.1" cy="716.0" r="3.5" fill="#8fff8f"/>
<circle cx="261.2" cy="716.0" r="3.5" fill="#8fff8f"/>
<circle cx="354.8" cy="716.0" r="3.5" fill="#8fff8f"/>
<circle cx="422.8" cy="716.0" r="3.5" fill="#8fff8f"/>
<text x="606.0" y="34" fill="#e8e8f0">LEGEND</text>
<rect x="606.0" y="43" width="12" height="12" fill="#c8783c"/>
<text x="624.0" y="52" fill="#ccd">deck/floor</text>
<rect x="606.0" y="60" width="12" height="12" fill="#8f8f96"/>
<text x="624.0" y="69" fill="#ccd">structure</text>
<rect x="606.0" y="77" width="12" height="12" fill="#e8b070"/>
<text x="624.0" y="86" fill="#ccd">platform/ledge</text>
<rect x="606.0" y="94" width="12" height="12" fill="#3f63bd"/>
<text x="624.0" y="103" fill="#ccd">velodrome ring</text>
<rect x="606.0" y="111" width="12" height="12" fill="#cf57f0"/>
<text x="624.0" y="120" fill="#ccd">wall-jump column</text>
<rect x="606.0" y="128" width="12" height="12" fill="#54dcf0"/>
<text x="624.0" y="137" fill="#ccd">neon/portal/crown</text>
<rect x="606.0" y="145" width="12" height="12" fill="#f2f06e"/>
<text x="624.0" y="154" fill="#ccd">jump pad</text>
<rect x="606.0" y="162" width="12" height="12" fill="#f2e85a"/>
<text x="624.0" y="171" fill="#ccd">gate/portal frame</text>
<rect x="606.0" y="179" width="12" height="12" fill="#ff5f5f"/>
<text x="624.0" y="188" fill="#ccd">hazard</text>
<circle cx="612.0" cy="207" r="6" fill="#8fff8f"/>
<text x="612.0" y="210" fill="#111" text-anchor="middle" font-size="8">S</text>
<text x="624.0" y="211" fill="#ccd">spawn</text>
<circle cx="612.0" cy="224" r="6" fill="#cf57f0"/>
<text x="612.0" y="227" fill="#111" text-anchor="middle" font-size="8">Q</text>
<text x="624.0" y="228" fill="#ccd">quad</text>
<circle cx="612.0" cy="241" r="6" fill="#ff7777"/>
<text x="612.0" y="244" fill="#111" text-anchor="middle" font-size="8">M</text>
<text x="624.0" y="245" fill="#ccd">mega</text>
<circle cx="612.0" cy="258" r="6" fill="#ff9b9b"/>
<text x="612.0" y="261" fill="#111" text-anchor="middle" font-size="8">h</text>
<text x="624.0" y="262" fill="#ccd">health</text>
<circle cx="612.0" cy="275" r="6" fill="#7fb0ff"/>
<text x="612.0" y="278" fill="#111" text-anchor="middle" font-size="8">A</text>
<text x="624.0" y="279" fill="#ccd">armor</text>
<circle cx="612.0" cy="292" r="6" fill="#54dcf0"/>
<text x="612.0" y="295" fill="#111" text-anchor="middle" font-size="8">P</text>
<text x="624.0" y="296" fill="#ccd">portal</text>
</svg>