<svg xmlns="http://www.w3.org/2000/svg" width="836" height="964" viewBox="0 0 836 964" font-family="monospace" font-size="11">
<rect width="836" height="964" fill="#15151c"/>
<defs><marker id="ahp" markerWidth="7" markerHeight="7" refX="6" refY="3" orient="auto"><path d="M0,0 L7,3 L0,6 Z" fill="#ffb26b"/></marker><marker id="aht" markerWidth="7" markerHeight="7" refX="6" refY="3" orient="auto"><path d="M0,0 L7,3 L0,6 Z" fill="#54dcf0"/></marker></defs>
<text x="28" y="16" fill="#e8e8f0">killbox seed 8224  |  centerpiece: hollow ring  |  3200x3200x1760u  |  boxes 30  spawns 16  |  heights labelled (z); arrows = pad/portal flow</text>
<text x="28" y="24" fill="#9aa">PLAN (top-down)</text>
<rect x="28" y="28" width="560" height="560" fill="#1d1d27" stroke="#33333f"/>
<line x1="-50.4" y1="28.0" x2="-50.4" y2="588.0" stroke="#262630"/>
<line x1="39.2" y1="28.0" x2="39.2" y2="588.0" stroke="#262630"/>
<line x1="128.8" y1="28.0" x2="128.8" y2="588.0" stroke="#262630"/>
<line x1="218.4" y1="28.0" x2="218.4" y2="588.0" stroke="#262630"/>
<line x1="308.0" y1="28.0" x2="308.0" y2="588.0" stroke="#262630"/>
<line x1="397.6" y1="28.0" x2="397.6" y2="588.0" stroke="#262630"/>
<line x1="487.2" y1="28.0" x2="487.2" y2="588.0" stroke="#262630"/>
<line x1="576.8" y1="28.0" x2="576.8" y2="588.0" stroke="#262630"/>
<line x1="28.0" y1="666.4" x2="588.0" y2="666.4" stroke="#262630"/>
<line x1="28.0" y1="576.8" x2="588.0" y2="576.8" stroke="#262630"/>
<line x1="28.0" y1="487.2" x2="588.0" y2="487.2" stroke="#262630"/>
<line x1="28.0" y1="397.6" x2="588.0" y2="397.6" stroke="#262630"/>
<line x1="28.0" y1="308.0" x2="588.0" y2="308.0" stroke="#262630"/>
<line x1="28.0" y1="218.4" x2="588.0" y2="218.4" stroke="#262630"/>
<line x1="28.0" y1="128.8" x2="588.0" y2="128.8" stroke="#262630"/>
<line x1="28.0" y1="39.2" x2="588.0" y2="39.2" stroke="#262630"/>
<rect x="28.0" y="28.0" width="560.0" height="560.0" fill="#c8783c" fill-opacity="0.3" stroke="#00000040"/>
<rect x="28.0" y="28.0" width="11.2" height="560.0" fill="#c8783c" fill-opacity="0.3" stroke="#00000040"/>
<rect x="576.8" y="28.0" width="11.2" height="560.0" fill="#c8783c" fill-opacity="0.3" stroke="#00000040"/>
<rect x="39.2" y="576.8" width="537.6" height="11.2" fill="#c8783c" fill-opacity="0.3" stroke="#00000040"/>
<rect x="39.2" y="28.0" width="537.6" height="11.2" fill="#c8783c" fill-opacity="0.3" stroke="#00000040"/>
<rect x="61.6" y="61.6" width="492.8" height="492.8" fill="#c8783c" fill-opacity="0.3" stroke="#00000040"/>
<rect x="378.0" y="334.9" width="42.0" height="174.7" fill="#c8783c" fill-opacity="0.3" stroke="#00000040"/>
<rect x="196.0" y="106.4" width="42.0" height="174.7" fill="#c8783c" fill-opacity="0.3" stroke="#00000040"/>
<rect x="370.6" y="295.4" width="25.2" height="25.2" fill="#8f8f96" fill-opacity="0.85" stroke="#00000040"/>
<text x="372.6" y="305.4" fill="#ffffffcc" font-size="8">420</text>
<rect x="295.4" y="220.1" width="25.2" height="25.2" fill="#8f8f96" fill-opacity="0.85" stroke="#00000040"/>
<text x="297.4" y="230.1" fill="#ffffffcc" font-size="8">420</text>
<rect x="220.1" y="295.4" width="25.2" height="25.2" fill="#8f8f96" fill-opacity="0.85" stroke="#00000040"/>
<text x="222.1" y="305.4" fill="#ffffffcc" font-size="8">420</text>
<rect x="295.4" y="370.6" width="25.2" height="25.2" fill="#8f8f96" fill-opacity="0.85" stroke="#00000040"/>
<text x="297.4" y="380.6" fill="#ffffffcc" font-size="8">420</text>
<rect x="50.4" y="50.4" width="515.2" height="11.2" fill="#8f8f96" fill-opacity="0.85" stroke="#00000040"/>
<rect x="50.4" y="554.4" width="515.2" height="11.2" fill="#8f8f96" fill-opacity="0.85" stroke="#00000040"/>
<rect x="554.4" y="61.6" width="11.2" height="492.8" fill="#8f8f96" fill-opacity="0.85" stroke="#00000040"/>
<rect x="50.4" y="61.6" width="11.2" height="492.8" fill="#8f8f96" fill-opacity="0.85" stroke="#00000040"/>
<rect x="460.9" y="231.8" width="18.2" height="18.2" fill="#f2f06e" fill-opacity="0.85" stroke="#00000040"/>
<rect x="366.0" y="136.9" width="18.2" height="18.2" fill="#f2f06e" fill-opacity="0.85" stroke="#00000040"/>
<rect x="231.8" y="136.9" width="18.2" height="18.2" fill="#f2f06e" fill-opacity="0.85" stroke="#00000040"/>
<rect x="136.9" y="231.8" width="18.2" height="18.2" fill="#f2f06e" fill-opacity="0.85" stroke="#00000040"/>
<rect x="136.9" y="366.0" width="18.2" height="18.2" fill="#f2f06e" fill-opacity="0.85" stroke="#00000040"/>
<rect x="231.8" y="460.9" width="18.2" height="18.2" fill="#f2f06e" fill-opacity="0.85" stroke="#00000040"/>
<rect x="366.0" y="460.9" width="18.2" height="18.2" fill="#f2f06e" fill-opacity="0.85" stroke="#00000040"/>
<rect x="460.9" y="366.0" width="18.2" height="18.2" fill="#f2f06e" fill-opacity="0.85" stroke="#00000040"/>
<rect x="437.5" y="294.0" width="28.0" height="28.0" fill="#cf57f0" fill-opacity="0.85" stroke="#00000040"/>
<text x="439.5" y="304.0" fill="#ffffffcc" font-size="8">460</text>
<rect x="150.5" y="294.0" width="28.0" height="28.0" fill="#cf57f0" fill-opacity="0.85" stroke="#00000040"/>
<text x="152.5" y="304.0" fill="#ffffffcc" font-size="8">460</text>
<rect x="61.6" y="61.6" width="492.8" height="44.8" fill="#c8783c" fill-opacity="0.3" stroke="#00000040"/>
<rect x="61.6" y="509.6" width="492.8" height="44.8" fill="#c8783c" fill-opacity="0.3" stroke="#00000040"/>
<rect x="509.6" y="61.6" width="44.8" height="492.8" fill="#c8783c" fill-opacity="0.3" stroke="#00000040"/>
<rect x="61.6" y="61.6" width="44.8" height="492.8" fill="#c8783c" fill-opacity="0.3" stroke="#00000040"/>
<line x1="470.0" y1="240.9" x2="298.2" y2="84.2" stroke="#ffb26b" stroke-width="1.6" opacity="0.8" marker-end="url(#ahp)"/>
<line x1="375.1" y1="146.0" x2="142.8" y2="156.7" stroke="#ffb26b" stroke-width="1.6" opacity="0.8" marker-end="url(#ahp)"/>
<line x1="240.9" y1="146.0" x2="84.2" y2="317.8" stroke="#ffb26b" stroke-width="1.6" opacity="0.8" marker-end="url(#ahp)"/>
<line x1="146.0" y1="240.9" x2="156.7" y2="473.2" stroke="#ffb26b" stroke-width="1.6" opacity="0.8" marker-end="url(#ahp)"/>
<line x1="146.0" y1="375.1" x2="317.8" y2="531.8" stroke="#ffb26b" stroke-width="1.6" opacity="0.8" marker-end="url(#ahp)"/>
<line x1="240.9" y1="470.0" x2="473.2" y2="459.3" stroke="#ffb26b" stroke-width="1.6" opacity="0.8" marker-end="url(#ahp)"/>
<line x1="375.1" y1="470.0" x2="531.8" y2="298.2" stroke="#ffb26b" stroke-width="1.6" opacity="0.8" marker-end="url(#ahp)"/>
<line x1="470.0" y1="375.1" x2="459.3" y2="142.8" stroke="#ffb26b" stroke-width="1.6" opacity="0.8" marker-end="url(#ahp)"/>
<line x1="308.0" y1="72.1" x2="308.0" y2="491.4" stroke="#54dcf0" stroke-width="1.6" opacity="0.8" marker-end="url(#aht)" stroke-dasharray="4 3"/>
<line x1="308.0" y1="543.9" x2="308.0" y2="124.6" stroke="#54dcf0" stroke-width="1.6" opacity="0.8" marker-end="url(#aht)" stroke-dasharray="4 3"/>
<line x1="543.9" y1="308.0" x2="124.6" y2="308.0" stroke="#54dcf0" stroke-width="1.6" opacity="0.8" marker-end="url(#aht)" stroke-dasharray="4 3"/>
<line x1="72.1" y1="308.0" x2="491.4" y2="308.0" stroke="#54dcf0" stroke-width="1.6" opacity="0.8" marker-end="url(#aht)" stroke-dasharray="4 3"/>
<circle cx="308.0" cy="308.0" r="6" fill="#cf57f0" stroke="#000" stroke-width="0.5"/>
<text x="308.0" y="311.0" fill="#111" text-anchor="middle" font-size="8">Q</text>
<text x="315.0" y="303.0" fill="#ffffffcc" font-size="8">z210</text>
<circle cx="308.0" cy="491.4" r="6" fill="#54dcf0" stroke="#000" stroke-width="0.5"/>
<text x="308.0" y="494.4" fill="#111" text-anchor="middle" font-size="8">P</text>
<text x="315.0" y="486.4" fill="#ffffffcc" font-size="8">z536</text>
<circle cx="308.0" cy="124.6" r="6" fill="#54dcf0" stroke="#000" stroke-width="0.5"/>
<text x="308.0" y="127.6" fill="#111" text-anchor="middle" font-size="8">P</text>
<text x="315.0" y="119.6" fill="#ffffffcc" font-size="8">z536</text>
<circle cx="124.6" cy="308.0" r="6" fill="#54dcf0" stroke="#000" stroke-width="0.5"/>
<text x="124.6" y="311.0" fill="#111" text-anchor="middle" font-size="8">P</text>
<text x="131.6" y="303.0" fill="#ffffffcc" font-size="8">z536</text>
<circle cx="491.4" cy="308.0" r="6" fill="#54dcf0" stroke="#000" stroke-width="0.5"/>
<text x="491.4" y="311.0" fill="#111" text-anchor="middle" font-size="8">P</text>
<text x="498.4" y="303.0" fill="#ffffffcc" font-size="8">z536</text>
<circle cx="450.3" cy="249.1" r="6" fill="#8fff8f" stroke="#000" stroke-width="0.5"/>
<text x="450.3" y="252.1" fill="#111" text-anchor="middle" font-size="8">S</text>
<circle cx="366.9" cy="165.7" r="6" fill="#8fff8f" stroke="#000" stroke-width="0.5"/>
<text x="366.9" y="168.7" fill="#111" text-anchor="middle" font-size="8">S</text>
<circle cx="249.1" cy="165.7" r="6" fill="#8fff8f" stroke="#000" stroke-width="0.5"/>
<text x="249.1" y="168.7" fill="#111" text-anchor="middle" font-size="8">S</text>
<circle cx="165.7" cy="249.1" r="6" fill="#8fff8f" stroke="#000" stroke-width="0.5"/>
<text x="165.7" y="252.1" fill="#111" text-anchor="middle" font-size="8">S</text>
<circle cx="165.7" cy="366.9" r="6" fill="#8fff8f" stroke="#000" stroke-width="0.5"/>
<text x="165.7" y="369.9" fill="#111" text-anchor="middle" font-size="8">S</text>
<circle cx="249.1" cy="450.3" r="6" fill="#8fff8f" stroke="#000" stroke-width="0.5"/>
<text x="249.1" y="453.3" fill="#111" text-anchor="middle" font-size="8">S</text>
<circle cx="366.9" cy="450.3" r="6" fill="#8fff8f" stroke="#000" stroke-width="0.5"/>
<text x="366.9" y="453.3" fill="#111" text-anchor="middle" font-size="8">S</text>
<circle cx="450.3" cy="366.9" r="6" fill="#8fff8f" stroke="#000" stroke-width="0.5"/>
<text x="450.3" y="369.9" fill="#111" text-anchor="middle" font-size="8">S</text>
<circle cx="377.3" cy="238.7" r="6" fill="#8fff8f" stroke="#000" stroke-width="0.5"/>
<text x="377.3" y="241.7" fill="#111" text-anchor="middle" font-size="8">S</text>
<circle cx="238.7" cy="238.7" r="6" fill="#8fff8f" stroke="#000" stroke-width="0.5"/>
<text x="238.7" y="241.7" fill="#111" text-anchor="middle" font-size="8">S</text>
<circle cx="238.7" cy="377.3" r="6" fill="#8fff8f" stroke="#000" stroke-width="0.5"/>
<text x="238.7" y="380.3" fill="#111" text-anchor="middle" font-size="8">S</text>
<circle cx="377.3" cy="377.3" r="6" fill="#8fff8f" stroke="#000" stroke-width="0.5"/>
<text x="377.3" y="380.3" fill="#111" text-anchor="middle" font-size="8">S</text>
<circle cx="308.0" cy="80.8" r="6" fill="#8fff8f" stroke="#000" stroke-width="0.5"/>
<text x="308.0" y="83.8" fill="#111" text-anchor="middle" font-size="8">S</text>
<text x="315.0" y="75.8" fill="#ffffffcc" font-size="8">z456</text>
<circle cx="308.0" cy="535.1" r="6" fill="#8fff8f" stroke="#000" stroke-width="0.5"/>
<text x="308.0" y="538.1" fill="#111" text-anchor="middle" font-size="8">S</text>
<text x="315.0" y="530.1" fill="#ffffffcc" font-size="8">z456</text>
<circle cx="535.1" cy="308.0" r="6" fill="#8fff8f" stroke="#000" stroke-width="0.5"/>
<text x="535.1" y="311.0" fill="#111" text-anchor="middle" font-size="8">S</text>
<text x="542.1" y="303.0" fill="#ffffffcc" font-size="8">z456</text>
<circle cx="80.8" cy="308.0" r="6" fill="#8fff8f" stroke="#000" stroke-width="0.5"/>
<text x="80.8" y="311.0" fill="#111" text-anchor="middle" font-size="8">S</text>
<text x="87.8" y="303.0" fill="#ffffffcc" font-size="8">z456</text>
<circle cx="298.2" cy="84.2" r="6" fill="#ff7777" stroke="#000" stroke-width="0.5"/>
<text x="298.2" y="87.2" fill="#111" text-anchor="middle" font-size="8">M</text>
<text x="305.2" y="79.2" fill="#ffffffcc" font-size="8">z456</text>
<circle cx="142.8" cy="156.7" r="6" fill="#7fb0ff" stroke="#000" stroke-width="0.5"/>
<text x="142.8" y="159.7" fill="#111" text-anchor="middle" font-size="8">A</text>
<text x="149.8" y="151.7" fill="#ffffffcc" font-size="8">z456</text>
<circle cx="84.2" cy="317.8" r="6" fill="#ff9b9b" stroke="#000" stroke-width="0.5"/>
<text x="84.2" y="320.8" fill="#111" text-anchor="middle" font-size="8">h</text>
<text x="91.2" y="312.8" fill="#ffffffcc" font-size="8">z456</text>
<circle cx="156.7" cy="473.2" r="6" fill="#7fb0ff" stroke="#000" stroke-width="0.5"/>
<text x="156.7" y="476.2" fill="#111" text-anchor="middle" font-size="8">A</text>
<text x="163.7" y="468.2" fill="#ffffffcc" font-size="8">z456</text>
<circle cx="317.8" cy="531.8" r="6" fill="#7fb0ff" stroke="#000" stroke-width="0.5"/>
<text x="317.8" y="534.8" fill="#111" text-anchor="middle" font-size="8">A</text>
<text x="324.8" y="526.8" fill="#ffffffcc" font-size="8">z456</text>
<circle cx="473.2" cy="459.3" r="6" fill="#7fb0ff" stroke="#000" stroke-width="0.5"/>
<text x="473.2" y="462.3" fill="#111" text-anchor="middle" font-size="8">A</text>
<text x="480.2" y="454.3" fill="#ffffffcc" font-size="8">z456</text>
<circle cx="531.8" cy="298.2" r="6" fill="#ff9b9b" stroke="#000" stroke-width="0.5"/>
<text x="531.8" y="301.2" fill="#111" text-anchor="middle" font-size="8">h</text>
<text x="538.8" y="293.2" fill="#ffffffcc" font-size="8">z456</text>
<circle cx="459.3" cy="142.8" r="6" fill="#7fb0ff" stroke="#000" stroke-width="0.5"/>
<text x="459.3" y="145.8" fill="#111" text-anchor="middle" font-size="8">A</text>
<text x="466.3" y="137.8" fill="#ffffffcc" font-size="8">z456</text>
<circle cx="402.0" cy="214.0" r="6" fill="#ff9b9b" stroke="#000" stroke-width="0.5"/>
<text x="402.0" y="217.0" fill="#111" text-anchor="middle" font-size="8">h</text>
<circle cx="214.0" cy="214.0" r="6" fill="#ff9b9b" stroke="#000" stroke-width="0.5"/>
<text x="214.0" y="217.0" fill="#111" text-anchor="middle" font-size="8">h</text>
<circle cx="214.0" cy="402.0" r="6" fill="#ff9b9b" stroke="#000" stroke-width="0.5"/>
<text x="214.0" y="405.0" fill="#111" text-anchor="middle" font-size="8">h</text>
<circle cx="402.0" cy="402.0" r="6" fill="#ff9b9b" stroke="#000" stroke-width="0.5"/>
<text x="402.0" y="405.0" fill="#111" text-anchor="middle" font-size="8">h</text>
<text x="28" y="622" fill="#9aa">ELEVATION (side, X x Z) — Z scale at left</text>
<rect x="28" y="628" width="560" height="308" fill="#1d1d27" stroke="#33333f"/>
<line x1="28.0" y1="908.0" x2="588.0" y2="908.0" stroke="#2a2a36"/>
<text x="30.0" y="906.0" fill="#667" font-size="8">0u</text>
<line x1="28.0" y1="838.0" x2="588.0" y2="838.0" stroke="#2a2a36"/>
<text x="30.0" y="836.0" fill="#667" font-size="8">400u</text>
<line x1="28.0" y1="768.0" x2="588.0" y2="768.0" stroke="#2a2a36"/>
<text x="30.0" y="766.0" fill="#667" font-size="8">800u</text>
<line x1="28.0" y1="698.0" x2="588.0" y2="698.0" stroke="#2a2a36"/>
<text x="30.0" y="696.0" fill="#667" font-size="8">1200u</text>
<line x1="28.0" y1="628.0" x2="588.0" y2="628.0" stroke="#2a2a36"/>
<text x="30.0" y="626.0" fill="#667" font-size="8">1600u</text>
<rect x="28.0" y="924.8" width="560.0" height="11.2" fill="#c8783c" fill-opacity="0.25" stroke="#00000030"/>
<rect x="28.0" y="628.0" width="11.2" height="296.8" fill="#c8783c" fill-opacity="0.25" stroke="#00000030"/>
<rect x="576.8" y="628.0" width="11.2" height="296.8" fill="#c8783c" fill-opacity="0.25" stroke="#00000030"/>
<rect x="39.2" y="628.0" width="537.6" height="296.8" fill="#c8783c" fill-opacity="0.25" stroke="#00000030"/>
<rect x="39.2" y="628.0" width="537.6" height="296.8" fill="#c8783c" fill-opacity="0.25" stroke="#00000030"/>
<rect x="61.6" y="908.0" width="492.8" height="5.6" fill="#c8783c" fill-opacity="0.25" stroke="#00000030"/>
<rect x="378.0" y="835.2" width="42.0" height="75.6" fill="#c8783c" fill-opacity="0.25" stroke="#00000030"/>
<rect x="196.0" y="835.2" width="42.0" height="75.6" fill="#c8783c" fill-opacity="0.25" stroke="#00000030"/>
<rect x="370.6" y="834.5" width="25.2" height="73.5" fill="#8f8f96" fill-opacity="0.7" stroke="#00000030"/>
<rect x="295.4" y="834.5" width="25.2" height="73.5" fill="#8f8f96" fill-opacity="0.7" stroke="#00000030"/>
<rect x="220.1" y="834.5" width="25.2" height="73.5" fill="#8f8f96" fill-opacity="0.7" stroke="#00000030"/>
<rect x="295.4" y="834.5" width="25.2" height="73.5" fill="#8f8f96" fill-opacity="0.7" stroke="#00000030"/>
<rect x="50.4" y="628.0" width="515.2" height="280.0" fill="#8f8f96" fill-opacity="0.7" stroke="#00000030"/>
<rect x="50.4" y="628.0" width="515.2" height="280.0" fill="#8f8f96" fill-opacity="0.7" stroke="#00000030"/>
<rect x="554.4" y="628.0" width="11.2" height="280.0" fill="#8f8f96" fill-opacity="0.7" stroke="#00000030"/>
<rect x="50.4" y="628.0" width="11.2" height="280.0" fill="#8f8f96" fill-opacity="0.7" stroke="#00000030"/>
<rect x="460.9" y="906.2" width="18.2" height="1.8" fill="#f2f06e" fill-opacity="0.7" stroke="#00000030"/>
<rect x="366.0" y="906.2" width="18.2" height="1.8" fill="#f2f06e" fill-opacity="0.7" stroke="#00000030"/>
<rect x="231.8" y="906.2" width="18.2" height="1.8" fill="#f2f06e" fill-opacity="0.7" stroke="#00000030"/>
<rect x="136.9" y="906.2" width="18.2" height="1.8" fill="#f2f06e" fill-opacity="0.7" stroke="#00000030"/>
<rect x="136.9" y="906.2" width="18.2" height="1.8" fill="#f2f06e" fill-opacity="0.7" stroke="#00000030"/>
<rect x="231.8" y="906.2" width="18.2" height="1.8" fill="#f2f06e" fill-opacity="0.7" stroke="#00000030"/>
<rect x="366.0" y="906.2" width="18.2" height="1.8" fill="#f2f06e" fill-opacity="0.7" stroke="#00000030"/>
<rect x="460.9" y="906.2" width="18.2" height="1.8" fill="#f2f06e" fill-opacity="0.7" stroke="#00000030"/>
<rect x="437.5" y="827.5" width="28.0" height="80.5" fill="#cf57f0" fill-opacity="0.7" stroke="#00000030"/>
<rect x="150.5" y="827.5" width="28.0" height="80.5" fill="#cf57f0" fill-opacity="0.7" stroke="#00000030"/>
<rect x="61.6" y="835.2" width="492.8" height="4.9" fill="#c8783c" fill-opacity="0.25" stroke="#00000030"/>
<rect x="61.6" y="835.2" width="492.8" height="4.9" fill="#c8783c" fill-opacity="0.25" stroke="#00000030"/>
<rect x="509.6" y="835.2" width="44.8" height="4.9" fill="#c8783c" fill-opacity="0.25" stroke="#00000030"/>
<rect x="61.6" y="835.2" width="44.8" height="4.9" fill="#c8783c" fill-opacity="0.25" stroke="#00000030"/>
<circle cx="308.0" cy="871.2" r="3.5" fill="#cf57f0"/>
<circle cx="308.0" cy="814.2" r="3.5" fill="#54dcf0"/>
<circle cx="308.0" cy="814.2" r="3.5" fill="#54dcf0"/>
<circle cx="124.6" cy="814.2" r="3.5" fill="#54dcf0"/>
<circle cx="491.4" cy="814.2" r="3.5" fill="#54dcf0"/>
<circle cx="450.3" cy="901.0" r="3.5" fill="#8fff8f"/>
<circle cx="366.9" cy="901.0" r="3.5" fill="#8fff8f"/>
<circle cx="249.1" cy="901.0" r="3.5" fill="#8fff8f"/>
<circle cx="165.7" cy="901.0" r="3.5" fill="#8fff8f"/>
<circle cx="165.7" cy="901.0" r="3.5" fill="#8fff8f"/>
<circle cx="249.1" cy="901.0" r="3.5" fill="#8fff8f"/>
<circle cx="366.9" cy="901.0" r="3.5" fill="#8fff8f"/>
<circle cx="450.3" cy="901.0" r="3.5" fill="#8fff8f"/>
<circle cx="377.3" cy="901.0" r="3.5" fill="#8fff8f"/>
<circle cx="238.7" cy="901.0" r="3.5" fill="#8fff8f"/>
<circle cx="238.7" cy="901.0" r="3.5" fill="#8fff8f"/>
<circle cx="377.3" cy="901.0" r="3.5" fill="#8fff8f"/>
<circle cx="308.0" cy="828.2" r="3.5" fill="#8fff8f"/>
<circle cx="308.0" cy="828.2" r="3.5" fill="#8fff8f"/>
<circle cx="535.1" cy="828.2" r="3.5" fill="#8fff8f"/>
<circle cx="80.8" cy="828.2" r="3.5" fill="#8fff8f"/>
<circle cx="298.2" cy="828.2" r="3.5" fill="#ff7777"/>
<circle cx="142.8" cy="828.2" r="3.5" fill="#7fb0ff"/>
<circle cx="84.2" cy="828.2" r="3.5" fill="#ff9b9b"/>
<circle cx="156.7" cy="828.2" r="3.5" fill="#7fb0ff"/>
<circle cx="317.8" cy="828.2" r="3.5" fill="#7fb0ff"/>
<circle cx="473.2" cy="828.2" r="3.5" fill="#7fb0ff"/>
<circle cx="531.8" cy="828.2" r="3.5" fill="#ff9b9b"/>
<circle cx="459.3" cy="828.2" r="3.5" fill="#7fb0ff"/>
<circle cx="402.0" cy="901.0" r="3.5" fill="#ff9b9b"/>
<circle cx="214.0" cy="901.0" r="3.5" fill="#ff9b9b"/>
<circle cx="214.0" cy="901.0" r="3.5" fill="#ff9b9b"/>
<circle cx="402.0" cy="901.0" r="3.5" fill="#ff9b9b"/>
<text x="606.0" y="34" fill="#e8e8f0">LEGEND</text>
<rect x="606.0" y="43" width="12" height="12" fill="#c8783c"/>
<text x="624.0" y="52" fill="#ccd">deck/floor</text>
<rect x="606.0" y="60" width="12" height="12" fill="#8f8f96"/>
<text x="624.0" y="69" fill="#ccd">structure</text>
<rect x="606.0" y="77" width="12" height="12" fill="#e8b070"/>
<text x="624.0" y="86" fill="#ccd">platform/ledge</text>
<rect x="606.0" y="94" width="12" height="12" fill="#3f63bd"/>
<text x="624.0" y="103" fill="#ccd">velodrome ring</text>
<rect x="606.0" y="111" width="12" height="12" fill="#cf57f0"/>
<text x="624.0" y="120" fill="#ccd">wall-jump column</text>
<rect x="606.0" y="128" width="12" height="12" fill="#54dcf0"/>
<text x="624.0" y="137" fill="#ccd">neon/portal/crown</text>
<rect x="606.0" y="145" width="12" height="12" fill="#f2f06e"/>
<text x="624.0" y="154" fill="#ccd">jump pad</text>
<rect x="606.0" y="162" width="12" height="12" fill="#f2e85a"/>
<text x="624.0" y="171" fill="#ccd">gate/portal frame</text>
<rect x="606.0" y="179" width="12" height="12" fill="#ff5f5f"/>
<text x="624.0" y="188" fill="#ccd">hazard</text>
<circle cx="612.0" cy="207" r="6" fill="#8fff8f"/>
<text x="612.0" y="210" fill="#111" text-anchor="middle" font-size="8">S</text>
<text x="624.0" y="211" fill="#ccd">spawn</text>
<circle cx="612.0" cy="224" r="6" fill="#cf57f0"/>
<text x="612.0" y="227" fill="#111" text-anchor="middle" font-size="8">Q</text>
<text x="624.0" y="228" fill="#ccd">quad</text>
<circle cx="612.0" cy="241" r="6" fill="#ff7777"/>
<text x="612.0" y="244" fill="#111" text-anchor="middle" font-size="8">M</text>
<text x="624.0" y="245" fill="#ccd">mega</text>
<circle cx="612.0" cy="258" r="6" fill="#ff9b9b"/>
<text x="612.0" y="261" fill="#111" text-anchor="middle" font-size="8">h</text>
<text x="624.0" y="262" fill="#ccd">health</text>
<circle cx="612.0" cy="275" r="6" fill="#7fb0ff"/>
<text x="612.0" y="278" fill="#111" text-anchor="middle" font-size="8">A</text>
<text x="624.0" y="279" fill="#ccd">armor</text>
<circle cx="612.0" cy="292" r="6" fill="#54dcf0"/>
<text x="612.0" y="295" fill="#111" text-anchor="middle" font-size="8">P</text>
<text x="624.0" y="296" fill="#ccd">portal</text>
</svg>